<?xml version="1.0" encoding="UTF-8"?><svg id="Layer_2" xmlns="http://www.w3.org/2000/svg" width="82.47" height="81.17" viewBox="0 0 82.47 81.17"><defs><style>.cls-1{fill:#fff;}.cls-2{fill:#b5d7ff;}.cls-3{fill:#de1b29;}.cls-4{fill:none;}.cls-5{fill:#404040;}</style></defs><g id="Layer_1-2"><g><path class="cls-1" d="M47.43,45.27c.64-.71,1.24-1.48,1.82-2.27,.53-.75,1.01-1.53,1.46-2.31l-4.36-4.59c.32-.7,.6-1.43,.82-2.15l6.33-.76c.38-1.85,.57-3.73,.54-5.6l-6.05-1.79c-.09-.77-.22-1.53-.38-2.28l5.1-3.82c-.59-1.77-1.37-3.48-2.34-5.13l-6.13,1.49c-.46-.62-.95-1.23-1.47-1.8l2.51-5.84c-.72-.65-1.47-1.25-2.28-1.82-.76-.52-1.52-1.01-2.31-1.45l-4.57,4.35c-.72-.33-1.44-.6-2.18-.83l-.75-6.33c-1.86-.38-3.73-.55-5.6-.53l-1.78,6.06c-.77,.08-1.54,.2-2.29,.37l-3.81-5.11c-1.79,.59-3.5,1.37-5.12,2.34l1.47,6.13c-.61,.45-1.21,.95-1.8,1.47l-5.84-2.52c-.64,.72-1.24,1.48-1.81,2.27-.53,.76-1.02,1.54-1.46,2.32l4.35,4.57c-.32,.72-.58,1.44-.83,2.17l-6.31,.75c-.39,1.85-.56,3.73-.55,5.6l6.07,1.79c.08,.78,.19,1.53,.36,2.27l-5.11,3.82c.6,1.77,1.38,3.5,2.35,5.13l6.13-1.48c.46,.61,.95,1.22,1.47,1.79l-2.51,5.85c.72,.64,1.48,1.25,2.28,1.81,.75,.52,1.53,1.01,2.31,1.45l4.56-4.34c.72,.33,1.44,.59,2.18,.82l.75,6.33c1.85,.38,3.73,.56,5.6,.53l1.79-6.07c.76-.07,1.53-.2,2.27-.37l3.82,5.11c1.77-.59,3.49-1.36,5.12-2.33l-1.48-6.13c.63-.46,1.22-.95,1.79-1.48l5.85,2.51Z"/><path class="cls-2" d="M53.5,33.18c.38-1.85,.57-3.73,.54-5.6l-6.05-1.79c-.09-.77-.22-1.53-.38-2.28l3.09-2.31c-2.01-.54-4.11-.86-6.29-.86-3.76,0-7.32,.87-10.5,2.41,1.2,1.39,1.93,3.19,1.93,5.17,0,4.37-3.54,7.91-7.91,7.91-1.98,0-3.78-.73-5.17-1.93-1.54,3.17-2.41,6.73-2.41,10.5,0,.75,.05,1.49,.11,2.22,.48,.19,.96,.39,1.45,.54l.75,6.33c1.85,.38,3.73,.56,5.6,.53l1.79-6.07c.76-.07,1.53-.2,2.27-.37l3.82,5.11c1.77-.59,3.49-1.36,5.12-2.33l-1.48-6.13c.63-.46,1.22-.95,1.79-1.48l5.85,2.51c.64-.71,1.24-1.48,1.82-2.27,.53-.75,1.01-1.53,1.46-2.31l-4.36-4.59c.32-.7,.6-1.43,.82-2.15l6.33-.76Z"/><path class="cls-1" d="M75.72,73.97c.58-.6,1.13-1.27,1.64-1.98,.52-.73,.98-1.5,1.38-2.27l-3.5-3.75c.28-.85,.46-1.71,.56-2.58l4.84-1.89c-.03-1.75-.32-3.49-.86-5.14l-5.27-.16c-.38-.76-.84-1.5-1.38-2.18l2.13-4.88c-.6-.57-1.25-1.11-1.95-1.61-.73-.52-1.48-.99-2.26-1.38l-3.92,3.66c-.81-.27-1.65-.44-2.48-.55l-1.96-4.99c-1.73,.04-3.45,.34-5.09,.88l-.17,5.35c-.76,.38-1.5,.84-2.17,1.36l-4.87-2.11c-.55,.57-1.05,1.18-1.54,1.84-.55,.77-1.03,1.58-1.44,2.4l3.59,3.83c-.29,.85-.48,1.7-.59,2.57l-4.83,1.89c.04,1.75,.35,3.47,.92,5.13l5.11,.17c.4,.8,.88,1.56,1.44,2.28l-2.03,4.64c.58,.55,1.21,1.08,1.88,1.55,.78,.55,1.58,1.04,2.42,1.45l3.66-3.44c.86,.3,1.75,.5,2.65,.59l1.83,4.67c1.76-.04,3.49-.35,5.17-.9l.17-5.03c.79-.39,1.56-.88,2.27-1.45l4.65,2.03Z"/><path class="cls-5" d="M27.87,55.84c-1.88,0-3.75-.19-5.58-.57l-1.28-.27-.77-6.49s-.08-.03-.11-.04l-4.68,4.46-1.17-.66c-.86-.49-1.69-1.01-2.45-1.54-.88-.62-1.69-1.27-2.45-1.94l-.98-.87,2.58-6.01s-.04-.05-.07-.08l-6.3,1.52-.68-1.15c-1-1.69-1.85-3.54-2.5-5.48l-.42-1.25,5.25-3.93s-.01-.06-.02-.1L.01,29.61v-1.35c-.03-2.06,.17-4.07,.58-5.99l.27-1.27,6.48-.77s.02-.07,.04-.1L2.91,15.43l.67-1.17c.46-.81,.98-1.64,1.55-2.46,.67-.93,1.3-1.72,1.95-2.45l.87-.97,5.99,2.58s.05-.04,.08-.07l-1.51-6.29,1.14-.68c1.73-1.04,3.58-1.88,5.49-2.51l1.24-.41,3.91,5.24s.07-.01,.11-.02L26.22,.02l1.34-.02c1.98-.02,4.02,.16,6,.56l1.28,.26,.77,6.5s.08,.03,.11,.04l4.68-4.45,1.17,.65c.78,.43,1.58,.94,2.46,1.54,.89,.63,1.69,1.27,2.46,1.96l.97,.87-2.57,5.99s.05,.06,.07,.09l6.3-1.53,.68,1.16c1.02,1.74,1.86,3.58,2.49,5.47l.42,1.24-5.24,3.92s.01,.07,.02,.1l6.21,1.84,.02,1.33c.03,1.98-.16,3.99-.58,5.99l-.26,1.28-6.49,.78s-.02,.06-.04,.1l4.47,4.71-.67,1.17c-.52,.91-1.03,1.71-1.55,2.46-.65,.9-1.3,1.71-1.94,2.43l-.87,.97-6-2.58s-.06,.05-.08,.07l1.52,6.3-1.15,.68c-1.7,1.01-3.55,1.85-5.48,2.49l-1.24,.41-3.92-5.24s-.07,.01-.1,.02l-1.84,6.21-1.33,.02c-.14,0-.28,0-.42,0Zm-3.56-3.9c.86,.13,1.73,.21,2.61,.25l1.75-5.93,1.22-.11c.65-.06,1.33-.17,2.04-.33l1.15-.26,3.72,4.98c.82-.32,1.62-.68,2.39-1.08l-1.44-5.96,.97-.71c.55-.41,1.09-.85,1.64-1.36l.86-.79,5.69,2.45c.29-.36,.58-.74,.87-1.14,.22-.31,.44-.65,.67-1l-4.25-4.48,.51-1.12c.28-.6,.53-1.25,.74-1.93l.35-1.12,6.16-.74c.13-.87,.22-1.74,.26-2.6l-5.88-1.74-.14-1.18c-.08-.71-.2-1.41-.35-2.11l-.25-1.14,4.96-3.71c-.32-.81-.68-1.61-1.09-2.39l-5.96,1.44-.72-.97c-.46-.62-.9-1.16-1.35-1.65l-.8-.87,2.45-5.69c-.36-.29-.74-.58-1.13-.86-.35-.24-.68-.46-1.01-.66l-4.46,4.25-1.12-.51c-.59-.27-1.24-.52-1.96-.75l-1.12-.35-.73-6.15c-.87-.13-1.74-.21-2.61-.25l-1.73,5.9-1.21,.13c-.71,.07-1.41,.19-2.09,.34l-1.15,.25-3.71-4.97c-.81,.32-1.61,.68-2.39,1.09l1.44,5.97-.97,.71c-.57,.42-1.12,.88-1.66,1.36l-.86,.78-5.67-2.44c-.28,.35-.57,.73-.86,1.13-.23,.33-.45,.67-.67,1.01l4.23,4.44-.48,1.11c-.29,.67-.54,1.33-.77,2.02l-.36,1.09-6.12,.73c-.13,.85-.21,1.72-.25,2.6l5.92,1.75,.12,1.22c.07,.72,.17,1.39,.32,2.05l.26,1.15-4.97,3.71c.33,.83,.69,1.63,1.09,2.4l5.96-1.44,.71,.97c.42,.57,.87,1.12,1.36,1.66l.78,.86-2.44,5.68c.37,.29,.74,.58,1.13,.85,.32,.22,.66,.45,1.01,.67l4.45-4.24,1.11,.5c.62,.28,1.26,.52,1.97,.74l1.12,.35,.73,6.17Z"/><path class="cls-5" d="M27.93,37.65c-5.36,0-9.73-4.37-9.73-9.73s4.37-9.73,9.73-9.73,9.73,4.36,9.73,9.73-4.37,9.73-9.73,9.73Zm0-15.83c-3.36,0-6.1,2.74-6.1,6.1s2.74,6.1,6.1,6.1,6.1-2.74,6.1-6.1-2.74-6.1-6.1-6.1Z"/><path class="cls-3" d="M56.43,72.52c0,1.23,.13,2.43,.37,3.58l2.18-2.05c.86,.3,1.75,.5,2.65,.59l1.83,4.67c1.76-.04,3.49-.35,5.17-.9l.17-5.03c.79-.39,1.56-.88,2.27-1.45l4.65,2.03c.58-.6,1.13-1.27,1.64-1.98,.52-.73,.98-1.5,1.38-2.27l-3.5-3.75c.28-.85,.46-1.71,.56-2.58l4.84-1.89c-.03-1.75-.32-3.49-.86-5.14l-5.27-.16c-.18-.37-.39-.73-.61-1.08-.02,0-.05,0-.07,0-9.61,0-17.4,7.79-17.4,17.4Z"/><path class="cls-5" d="M62.23,81.17l-1.91-4.88c-.29-.06-.58-.12-.86-.19l-3.81,3.58-1.13-.55c-.9-.44-1.78-.97-2.67-1.6-.71-.51-1.4-1.09-2.07-1.71l-.93-.88,2.13-4.86c-.16-.23-.31-.48-.45-.72l-5.32-.18-.41-1.18c-.63-1.84-.98-3.75-1.02-5.68l-.03-1.27,5.05-1.97c.05-.26,.11-.51,.18-.77l-3.74-3.99,.56-1.13c.45-.91,.98-1.79,1.58-2.64,.62-.84,1.16-1.48,1.72-2.05l.87-.89,5.07,2.2c.2-.13,.4-.26,.61-.38l.18-5.58,1.2-.4c1.83-.6,3.72-.93,5.62-.97l1.27-.02,2.04,5.21c.23,.05,.45,.1,.67,.15l4.1-3.83,1.14,.58c.85,.43,1.69,.95,2.49,1.52,.75,.53,1.47,1.13,2.15,1.78l.91,.88-2.22,5.08c.14,.2,.27,.41,.39,.62l5.51,.17,.4,1.21c.6,1.85,.92,3.76,.95,5.67l.02,1.26-5.03,1.96c-.05,.27-.11,.53-.17,.78l3.67,3.92-.58,1.13c-.44,.88-.96,1.72-1.52,2.51-.57,.79-1.18,1.52-1.81,2.18l-.88,.92-4.85-2.12c-.24,.16-.48,.32-.73,.46l-.18,5.26-1.21,.4c-1.87,.61-3.79,.95-5.7,.99l-1.27,.03Zm-3.7-9.18l1.03,.35c.73,.25,1.49,.42,2.27,.5l1.09,.12,1.75,4.46c.73-.07,1.46-.2,2.19-.38l.16-4.8,.98-.48c.67-.33,1.33-.75,1.94-1.23l.86-.68,4.45,1.94c.23-.28,.45-.56,.66-.85,.21-.3,.42-.61,.62-.93l-3.34-3.57,.34-1.02c.23-.7,.39-1.43,.48-2.21l.12-1.09,4.63-1.81c-.07-.72-.19-1.44-.36-2.15l-5.03-.16-.48-.97c-.33-.66-.72-1.28-1.18-1.86l-.67-.85,2.03-4.66c-.26-.22-.53-.42-.81-.62-.31-.22-.62-.43-.94-.63l-3.73,3.49-1.02-.34c-.66-.22-1.38-.37-2.14-.47l-1.06-.14-1.87-4.77c-.71,.07-1.42,.19-2.11,.36l-.16,5.11-.97,.48c-.66,.33-1.3,.74-1.87,1.18l-.85,.66-4.65-2.02c-.18,.22-.36,.46-.56,.73-.23,.33-.46,.68-.68,1.04l3.44,3.67-.35,1.03c-.25,.74-.42,1.46-.51,2.21l-.13,1.07-4.6,1.8c.08,.73,.21,1.45,.39,2.16l4.88,.16,.48,.97c.36,.71,.78,1.37,1.24,1.97l.67,.86-1.94,4.42c.24,.2,.49,.39,.74,.57,.36,.26,.72,.49,1.07,.7l3.5-3.29Z"/><path class="cls-4" d="M75.72,73.97c.58-.6,1.13-1.27,1.64-1.98,.52-.73,.98-1.5,1.38-2.27l-3.5-3.75c.28-.85,.46-1.71,.56-2.58l4.84-1.89c-.03-1.75-.32-3.49-.86-5.14l-5.27-.16c-.38-.76-.84-1.5-1.38-2.18l2.13-4.88c-.6-.57-1.25-1.11-1.95-1.61-.73-.52-1.48-.99-2.26-1.38l-3.92,3.66c-.81-.27-1.65-.44-2.48-.55l-1.96-4.99c-1.73,.04-3.45,.34-5.09,.88l-.17,5.35c-.76,.38-1.5,.84-2.17,1.36l-4.87-2.11c-.55,.57-1.05,1.18-1.54,1.84-.55,.77-1.03,1.58-1.44,2.4l3.59,3.83c-.29,.85-.48,1.7-.59,2.57l-4.83,1.89c.04,1.75,.35,3.47,.92,5.13l5.11,.17c.4,.8,.88,1.56,1.44,2.28l-2.03,4.64c.58,.55,1.21,1.08,1.88,1.55,.78,.55,1.58,1.04,2.42,1.45l3.66-3.44c.86,.3,1.75,.5,2.65,.59l1.83,4.67c1.76-.04,3.49-.35,5.17-.9l.17-5.03c.79-.39,1.56-.88,2.27-1.45l4.65,2.03Z"/></g></g></svg>