<?xml version="1.0" encoding="UTF-8"?>
<svg xmlns="http://www.w3.org/2000/svg" id="Layer_2" width="280" height="270" viewBox="0 0 280 270">
  <defs>
    <style>.cls-1{fill:#fff;}.cls-2{fill:#b5d7ff;}.cls-3{fill:#004aa0;}.cls-4{fill:#fb3;}.cls-5{fill:#998675;}.cls-6{fill:#00a251;}.cls-7{fill:#de1b29;}.cls-8{fill:#c7b299;}.cls-9{fill:#a67c52;}.cls-10{fill:#c69c6d;}.cls-11{fill:#b3b3b3;}.cls-12{fill:#002c68;}.cls-13{fill:#404040;}.cls-14{fill:#f2f2f2;}.cls-15{fill:#161e2e;}</style>
  </defs>
  <g id="Layer_1-2">
    <g>
      <ellipse class="cls-2" cx="140" cy="135" rx="140" ry="135"></ellipse>
      <path class="cls-15" d="m268.07,237.66H16.94V49.75c0-10.17,8.24-18.41,18.41-18.41h214.3c10.17,0,18.41,8.24,18.41,18.41v187.91Z"></path>
      <rect class="cls-14" x="16.94" y="67.57" width="251.13" height="160.62"></rect>
      <rect class="cls-11" x="169.79" y="82.17" width="81.04" height="4.86"></rect>
      <rect class="cls-11" x="142.21" y="93.99" width="108.61" height="4.86"></rect>
      <rect class="cls-11" x="139.83" y="105.82" width="111" height="4.86"></rect>
      <rect class="cls-11" x="140.17" y="117.65" width="110.66" height="4.86"></rect>
      <rect class="cls-11" x="139.15" y="133.23" width="111.68" height="25.05"></rect>
      <rect class="cls-11" x="34.41" y="166.76" width="63.95" height="45.75"></rect>
      <rect class="cls-11" x="110.65" y="166.76" width="63.95" height="45.75"></rect>
      <rect class="cls-11" x="186.88" y="166.76" width="63.95" height="45.75"></rect>
      <circle class="cls-7" cx="37.9" cy="50.28" r="7.21"></circle>
      <circle class="cls-4" cx="56.18" cy="50.28" r="7.21"></circle>
      <path class="cls-6" d="m81.66,50.28c0,3.98-3.23,7.21-7.21,7.21s-7.21-3.23-7.21-7.21,3.23-7.21,7.21-7.21,7.21,3.23,7.21,7.21Z"></path>
      <path class="cls-1" d="m250.58,54.6H97.95c-2.39,0-4.33-1.94-4.33-4.33h0c0-2.39,1.94-4.33,4.33-4.33h152.63c2.39,0,4.33,1.94,4.33,4.33h0c0,2.39-1.94,4.33-4.33,4.33Z"></path>
      <g>
        <path class="cls-12" d="m81.36,158.2c.02-30.87.78-24.19-4.4-28.94-5.26-4.83-13.3-4.72-13.3-4.72h-12.23s-8.05-.11-13.3,4.72c-2.17,1.99-3.29,4.24-3.87,8.44v20.5h47.1Z"></path>
        <path class="cls-5" d="m52.14,117.56s1.82,5.15-.75,6.97c0,0,1.66,4.08,6.16,4.08,4.51,0,6.16-4.08,6.16-4.08-2.57-1.82-.75-6.97-.75-6.97h-10.83Z"></path>
        <path class="cls-8" d="m57.55,120.67c-6.56,0-11.54-8.05-11.54-9.23v-2.68c-.34.75-4.07.54-4.07-4.08,0-4.61,3.17-3.43,3.17-3.43,0-12.98,6.9-15.13,12.44-15.13,5.54,0,12.44,2.15,12.44,15.13,0,0,3.17-1.18,3.17,3.43s-3.73,4.83-4.07,4.08v2.68c0,1.18-4.98,9.23-11.54,9.23Z"></path>
        <path class="cls-15" d="m60.57,83.88s15.66-5.15,9.55,21.13c0,0-.54.97-.54-1.5s.21-14.27-5.9-14.27c-2.57,0-3.43,1.5-5.58,1.5s-6.11-2.04-8.15-.64c-2.04,1.39-3.65,4.4-4.51,15.98,0,0-.64.75-.97-2.68s-3-15.55,2.68-18.67c5.69-3.11,9.87-3.22,13.41-.86Z"></path>
      </g>
      <g>
        <path class="cls-15" d="m93.08,146.31c-4.75,1.62-10.33.58-14.17-2.65-3.85-3.23-5.83-8.54-5.04-13.51.79-4.96,4.31-9.4,8.97-11.29-2.8-2.88-2.15-8.31,1.25-10.45l24.04-14.53c3.32-1.04,7.17-.15,9.69,2.25s3.6,6.2,2.72,9.57c4.13,1.69,4.7,8.2,3.2,12.4-1.35,3.79-3.53,5.36-3.42,9.38.05,1.97,1.11,3.77,1.45,5.71s-.95,6.17-4.27,6.17l-24.4,6.94Z"></path>
        <path class="cls-3" d="m78.12,158.2c-.05-19.82-.65-13.02,4.4-17.66,5.26-4.83,13.3-4.72,13.3-4.72h12.23s8.05-.11,13.3,4.72c1.49,1.37,2.49,2.86,3.16,4.8v12.87h-46.39Z"></path>
        <path class="cls-9" d="m107.35,128.84s-1.82,5.15.75,6.97c0,0-1.66,12.03-6.16,12.03-4.51,0-6.16-12.03-6.16-12.03,2.57-1.82.75-6.97.75-6.97h10.83Z"></path>
        <path class="cls-10" d="m101.94,131.95c6.56,0,11.54-8.05,11.54-9.23v-2.68c.34.75,4.07.54,4.07-4.08,0-4.61-3.17-3.43-3.17-3.43,0-12.98-6.9-15.13-12.44-15.13-5.54,0-12.44,2.15-12.44,15.13,0,0-3.17-1.18-3.17,3.43s3.73,4.83,4.07,4.08v2.68c0,1.18,4.98,9.23,11.54,9.23Z"></path>
        <path class="cls-13" d="m98.92,95.16s-15.66-5.15-9.55,21.13c0,0,.54.97.54-1.5s-.21-14.27,5.9-14.27c2.57,0,3.43,1.5,5.58,1.5s6.11-2.04,8.15-.64c2.04,1.39,3.65,4.4,4.51,15.98,0,0,.64.75.97-2.68.32-3.43,6.41-15.46-3.17-19.75-5.92-2.65-9.38-2.13-12.92.23Z"></path>
        <path class="cls-13" d="m108.81,94.04c-2.07-4.22-8.25-6.8-12.78-5.52-4.53,1.28-8.01,5.09-9.94,9.38s-2.5,9.06-2.83,13.75c-.13,1.85-.08,4.02,1.4,5.13,1.69,1.26,4.09.3,5.89-.79,7.62-4.62,14.11-14.05,18.26-21.94Z"></path>
      </g>
    </g>
  </g>
</svg>
