<?xml version="1.0" encoding="UTF-8"?><svg id="Layer_2" xmlns="http://www.w3.org/2000/svg" width="70.47" height="70.47" viewBox="0 0 70.47 70.47"><defs><style>.cls-1{fill:#fff;}.cls-2{fill:#b5d7ff;}.cls-3{fill:#de1b29;}.cls-4{fill:#404040;}</style></defs><g id="Layer_1-2"><g><path class="cls-1" d="M33.6,3.4v14.12c-9.05,.83-16.16,8.46-16.16,17.72,0,2.84,.68,5.51,1.87,7.9l-12.05,7.45c-2.51-4.56-3.94-9.78-3.94-15.34C3.32,18.19,16.76,4.26,33.6,3.4Z"/><path class="cls-3" d="M9.01,53.39l12.04-7.44c2.94,3.88,7.42,6.53,12.53,7.01v14.12c-10.17-.53-19.09-5.8-24.56-13.68Z"/><path class="cls-2" d="M36.89,67.07v-14.12c9.04-.84,16.14-8.46,16.14-17.72s-7.09-16.87-16.12-17.72V3.4c16.82,.88,30.24,14.8,30.24,31.83s-13.43,30.97-30.26,31.84Z"/><path class="cls-4" d="M35.23,0C15.81,0,0,15.81,0,35.23s15.81,35.23,35.23,35.23,35.24-15.81,35.24-35.23S54.66,0,35.23,0Zm0,49.72c-7.99,0-14.48-6.5-14.48-14.49s6.5-14.49,14.48-14.49,14.48,6.5,14.48,14.49-6.5,14.49-14.48,14.49Zm-1.64-46.32v14.12c-9.05,.83-16.16,8.46-16.16,17.72,0,2.84,.68,5.51,1.87,7.9l-12.05,7.45c-2.51-4.56-3.94-9.78-3.94-15.34C3.32,18.19,16.76,4.26,33.6,3.4ZM9.01,53.39l12.04-7.44c2.94,3.88,7.42,6.53,12.53,7.01v14.12c-10.17-.53-19.09-5.8-24.56-13.68Zm27.88,13.68v-14.12c9.04-.84,16.14-8.46,16.14-17.72s-7.09-16.87-16.12-17.72V3.4c16.82,.88,30.24,14.8,30.24,31.83s-13.43,30.97-30.26,31.84Z"/><path class="cls-2" d="M10.95,46.88c-2.51-4.56-3.94-9.78-3.94-15.34,0-7.88,2.9-15.07,7.65-20.64C7.73,16.75,3.32,25.48,3.32,35.23c0,5.56,1.43,10.79,3.94,15.34l12.05-7.45c-.18-.36-.32-.74-.48-1.11l-7.87,4.87Z"/><path class="cls-2" d="M13.42,50.66l-4.41,2.72c5.47,7.88,14.39,13.16,24.56,13.68v-4.1c-8.21-1.39-15.35-5.91-20.16-12.31Z"/><g><path class="cls-1" d="M53.03,35.23c0,3.97-1.31,7.63-3.52,10.59,4.37-3.24,7.21-8.44,7.21-14.28,0-9.25-7.09-16.87-16.12-17.72V3.83c-1.21-.21-2.44-.37-3.69-.43v14.12c9.03,.85,16.12,8.47,16.12,17.72Z"/><path class="cls-1" d="M40.58,63.38v-11.18c-1.18,.37-2.42,.64-3.69,.76v14.12c9.05-.47,17.09-4.73,22.62-11.2-5.17,4.37-11.73,7.14-18.92,7.51Z"/></g></g></g></svg>