<?xml version="1.0" encoding="UTF-8"?><svg id="Layer_2" xmlns="http://www.w3.org/2000/svg" width="85.19" height="77" viewBox="0 0 85.19 77"><defs><style>.cls-1{fill:#b5d7ff;}.cls-2{fill:#de1b29;}.cls-3{fill:#404040;}</style></defs><g id="Layer_1-2"><g><path class="cls-3" d="M42.6,50.57C21.95,50.57,0,46,0,37.55s21.95-13.01,42.6-13.01,42.6,4.56,42.6,13.01-21.95,13.01-42.6,13.01Zm0-22.84c-24.42,0-39.41,5.72-39.41,9.82s14.99,9.82,39.41,9.82,39.41-5.72,39.41-9.82-14.99-9.82-39.41-9.82Z"/><path class="cls-3" d="M61.28,75.12c-3.2,0-7.38-2.46-12.3-7.28-5.84-5.73-12.11-14.17-17.66-23.78-5.55-9.61-9.72-19.26-11.76-27.18-2.23-8.67-1.63-14.28,1.74-16.22,7.33-4.21,22.25,12.5,32.57,30.38,5.55,9.61,9.72,19.26,11.76,27.18,2.23,8.67,1.63,14.27-1.74,16.22-.78,.45-1.65,.67-2.62,.67ZM23.98,3.16c-.42,0-.79,.09-1.09,.26-1.47,.85-2.31,4.62-.24,12.66,1.97,7.65,6.03,17.02,11.44,26.38,5.41,9.36,11.49,17.56,17.13,23.09,5.93,5.81,9.61,6.97,11.08,6.12h0c1.47-.85,2.31-4.62,.24-12.66-1.97-7.65-6.03-17.02-11.44-26.38C39.93,13.28,28.55,3.16,23.98,3.16Z"/><path class="cls-3" d="M23.92,75.11c-.97,0-1.84-.22-2.62-.67-3.37-1.94-3.97-7.55-1.74-16.22,2.04-7.92,6.22-17.57,11.76-27.18C41.65,13.16,56.59-3.57,63.9,.66h0c3.37,1.94,3.97,7.55,1.74,16.22-2.04,7.92-6.22,17.57-11.76,27.18-5.55,9.61-11.82,18.05-17.66,23.78-4.91,4.81-9.09,7.28-12.29,7.28ZM61.21,3.16c-4.57,0-15.95,10.12-27.12,29.47-5.41,9.36-9.47,18.73-11.44,26.38-2.07,8.04-1.23,11.81,.24,12.66,1.47,.85,5.16-.31,11.08-6.12,5.64-5.53,11.72-13.73,17.13-23.09,5.41-9.37,9.47-18.74,11.44-26.38,2.07-8.04,1.23-11.81-.24-12.66h0c-.3-.17-.66-.26-1.09-.26Z"/><g><path class="cls-1" d="M37.55,37.55c0-2.95,2.39-5.34,5.34-5.34s5.34,2.39,5.34,5.34-2.39,5.34-5.34,5.34-5.34-2.39-5.34-5.34Z"/><path class="cls-3" d="M42.89,44.49c-3.82,0-6.94-3.11-6.94-6.94s3.11-6.94,6.94-6.94,6.94,3.11,6.94,6.94-3.11,6.94-6.94,6.94Zm0-10.68c-2.07,0-3.75,1.68-3.75,3.75s1.68,3.74,3.75,3.74,3.75-1.68,3.75-3.74-1.68-3.75-3.75-3.75Z"/></g><g><path class="cls-2" d="M28.76,7.13c0-2.95,2.39-5.34,5.34-5.34s5.34,2.39,5.34,5.34-2.39,5.34-5.34,5.34-5.34-2.39-5.34-5.34Z"/><path class="cls-3" d="M34.11,14.07c-3.83,0-6.94-3.11-6.94-6.94S30.28,.19,34.11,.19s6.94,3.11,6.94,6.94-3.11,6.94-6.94,6.94Zm0-10.69c-2.07,0-3.75,1.68-3.75,3.75s1.68,3.75,3.75,3.75,3.74-1.68,3.74-3.75-1.68-3.75-3.74-3.75Z"/></g><g><path class="cls-2" d="M68.88,29.94c0-2.95,2.4-5.34,5.34-5.34s5.34,2.39,5.34,5.34-2.39,5.34-5.34,5.34-5.34-2.39-5.34-5.34Z"/><path class="cls-3" d="M74.23,36.87c-3.83,0-6.94-3.11-6.94-6.94s3.11-6.94,6.94-6.94,6.94,3.11,6.94,6.94-3.11,6.94-6.94,6.94Zm0-10.68c-2.07,0-3.75,1.68-3.75,3.75s1.68,3.75,3.75,3.75,3.75-1.68,3.75-3.75-1.68-3.75-3.75-3.75Z"/></g><g><path class="cls-2" d="M27.3,70.06c0-2.95,2.39-5.34,5.34-5.34s5.34,2.39,5.34,5.34-2.39,5.34-5.34,5.34-5.34-2.4-5.34-5.34Z"/><path class="cls-3" d="M32.64,77c-3.82,0-6.94-3.11-6.94-6.94s3.11-6.94,6.94-6.94,6.94,3.11,6.94,6.94-3.11,6.94-6.94,6.94Zm0-10.69c-2.07,0-3.75,1.68-3.75,3.75s1.68,3.75,3.75,3.75,3.75-1.68,3.75-3.75-1.68-3.75-3.75-3.75Z"/></g></g></g></svg>