<?xml version="1.0" encoding="UTF-8"?>
<svg xmlns="http://www.w3.org/2000/svg" width="296.17" height="279.4" viewBox="0 0 296.17 279.4">
  <defs>
    <style>.cls-1{fill:#fff;}.cls-2{fill:#b5d7ff;}.cls-3{fill:#fb3;}.cls-4{fill:#00a251;}.cls-5{isolation:isolate;}.cls-6{fill:#de1b29;}.cls-7{fill:#d0d2d3;}.cls-8{fill:#232323;mix-blend-mode:multiply;opacity:.14;}.cls-9{fill:#2e2e2e;}.cls-10{fill:#474747;}.cls-11{fill:#b3b3b3;}.cls-12{fill:#f2f2f2;}.cls-13{fill:#161e2e;}</style>
  </defs>
  <g class="cls-5">
    <g id="Layer_2">
      <g id="Layer_1-2">
        <g>
          <ellipse class="cls-2" cx="140" cy="135" rx="140" ry="135"></ellipse>
          <path class="cls-13" d="m268.07,237.66H16.94V49.75c0-10.17,8.24-18.41,18.41-18.41h214.3c10.17,0,18.41,8.24,18.41,18.41v187.91Z"></path>
          <rect class="cls-12" x="16.94" y="67.57" width="251.13" height="160.62"></rect>
          <rect class="cls-11" x="34.41" y="82.17" width="216.42" height="25.05"></rect>
          <rect class="cls-11" x="34.41" y="118.78" width="63.95" height="93.73"></rect>
          <rect class="cls-11" x="110.65" y="118.78" width="63.95" height="93.73"></rect>
          <rect class="cls-11" x="186.88" y="118.78" width="63.95" height="93.73"></rect>
          <circle class="cls-6" cx="37.9" cy="50.28" r="7.21"></circle>
          <circle class="cls-3" cx="56.18" cy="50.28" r="7.21"></circle>
          <path class="cls-4" d="m81.66,50.28c0,3.98-3.23,7.21-7.21,7.21s-7.21-3.23-7.21-7.21,3.23-7.21,7.21-7.21,7.21,3.23,7.21,7.21Z"></path>
          <path class="cls-1" d="m250.58,54.6H97.95c-2.39,0-4.33-1.94-4.33-4.33h0c0-2.39,1.94-4.33,4.33-4.33h152.63c2.39,0,4.33,1.94,4.33,4.33h0c0,2.39-1.94,4.33-4.33,4.33Z"></path>
          <circle class="cls-1" cx="227.08" cy="210.31" r="69.09" transform="translate(-16.16 401.7) rotate(-81)"></circle>
          <g>
            <path class="cls-4" d="m270.5,164.68c12.05,11.47,19.56,27.67,19.56,45.63h-62.99l44.54-44.54c-.37-.37-.74-.73-1.12-1.09Z"></path>
            <path class="cls-3" d="m225.52,147.34c16.64-.41,33.4,5.73,46.1,18.43l-44.54,44.54v-62.99c-.52,0-1.04,0-1.56.02Z"></path>
            <path class="cls-3" d="m181.45,166.89c11.47-12.05,27.67-19.56,45.63-19.56v62.99l-44.54-44.54c-.37.37-.73.74-1.09,1.12Z"></path>
            <path class="cls-6" d="m164.11,211.87c-.41-16.64,5.73-33.4,18.43-46.1l44.54,44.54h-62.99c0,.52,0,1.04.02,1.56Z"></path>
          </g>
          <g>
            <path class="cls-6" d="m183.66,255.94c-12.05-11.47-19.56-27.67-19.56-45.63h62.99l-44.54,44.54c.37.37.74.73,1.12,1.09Z"></path>
            <path class="cls-4" d="m290.05,208.75c.41,16.64-5.73,33.4-18.43,46.1l-44.54-44.54h62.99c0-.52,0-1.04-.02-1.56Z"></path>
          </g>
          <circle class="cls-1" cx="227.08" cy="210.31" r="37.19" transform="translate(-14.47 403.83) rotate(-81.5)"></circle>
          <g>
            <path class="cls-7" d="m234.72,223.07c-7.05,4.22-16.18,1.93-20.4-5.11-4.22-7.05-1.93-16.18,5.11-20.4,7.05-4.22,16.18-1.93,20.4,5.11,4.22,7.05,1.93,16.18-5.11,20.4Z"></path>
            <path class="cls-8" d="m277.23,182.36l-51.13,26c-2.08,1.06-2.83,3.65-1.63,5.65h0c1.2,2,3.84,2.56,5.75,1.23l47-32.88Z"></path>
            <path class="cls-10" d="m276.3,180.81l-51.14,25.97c-2.08,1.06-2.83,3.65-1.63,5.65h0c1.2,2,3.84,2.57,5.75,1.23l47.02-32.85Z"></path>
          </g>
          <g>
            <path class="cls-9" d="m210.84,257.7l.98-4.64c.51-2.41,1.96-3.61,4.37-3.61h2.06c1.03,0,1.65-.52,1.87-1.55l.22-1.03c.22-1.03-.19-1.55-1.22-1.55h-5.67l.43-2.06h5.67c2.41,0,3.35,1.2,2.85,3.61l-.22,1.03c-.51,2.41-1.96,3.61-4.37,3.61h-2.06c-1.03,0-1.65.52-1.87,1.55l-.54,2.58h7.22l-.43,2.06h-9.28Z"></path>
            <path class="cls-9" d="m222.18,257.7l.98-4.64c.51-2.41,1.96-3.61,4.37-3.61h2.06c1.03,0,1.65-.52,1.87-1.55l.22-1.03c.22-1.03-.19-1.55-1.22-1.55h-5.67l.43-2.06h5.67c2.41,0,3.36,1.2,2.85,3.61l-.22,1.03c-.51,2.41-1.96,3.61-4.37,3.61h-2.06c-1.03,0-1.65.52-1.87,1.55l-.54,2.58h7.22l-.43,2.06h-9.28Z"></path>
            <path class="cls-9" d="m244.08,254.09c-.51,2.41-1.96,3.61-4.37,3.61h-2.58c-2.41,0-3.35-1.2-2.85-3.61l1.52-7.22c.51-2.41,1.96-3.61,4.37-3.61h2.58c2.4,0,3.35,1.2,2.85,3.61l-1.52,7.22Zm-.65-6.7l.11-.52c.22-1.03-.19-1.55-1.22-1.55h-2.58c-1.03,0-1.65.52-1.87,1.55l-.95,4.54-.46,2.16-.11.52c-.22,1.03.19,1.55,1.22,1.55h2.58c1.03,0,1.65-.52,1.87-1.55l.95-4.54.46-2.16Z"></path>
          </g>
          <g>
            <path class="cls-9" d="m221.94,267.01v-4.96h.74v.34s.59-.36,1.24-.4c.2-.02.39-.03.55,0,.42.04.71.18.91.42.29-.11,1.11-.45,1.79-.45,1.35,0,1.68.64,1.68,2.48v2.58h-.74v-2.35c0-1.52-.1-2.02-1.04-2.02-.67,0-1.37.36-1.39.37.08.23.12.83.12,1.43v2.58h-.74v-2.56c0-1.37-.14-1.81-1.04-1.81-.66,0-1.33.37-1.33.37v4.01h-.74Z"></path>
            <path class="cls-9" d="m233.76,262.79s-1.1-.16-1.73-.16-1.07.16-1.07.74c0,.47.23.6,1.21.75,1.31.21,1.78.48,1.78,1.44,0,1.16-.73,1.55-1.93,1.55-.63,0-1.75-.19-1.75-.19l.04-.64s1.13.17,1.64.17c.81,0,1.25-.18,1.25-.85,0-.52-.26-.63-1.25-.79-1.21-.19-1.75-.43-1.75-1.4,0-1.09.88-1.45,1.78-1.45.74,0,1.8.19,1.8.19l-.02.64Z"></path>
          </g>
        </g>
      </g>
    </g>
  </g>
</svg>
