<?xml version="1.0" encoding="UTF-8"?>
<svg xmlns="http://www.w3.org/2000/svg" id="Layer_2" viewBox="0 0 263.3776 268.0411">
  <g id="Layer_1-2">
    <g id="Layer_2-2">
      <g id="Software">
        <path d="M247.7817,131.353c-.039,68.423-55.5384,123.8592-123.9614,123.8202C55.3973,255.1342-.039,199.6348,0,131.2118,.039,62.7888,55.5384,7.3525,123.9614,7.3915c10.474,.006,20.905,1.3401,31.0433,3.9706,.0387,0,.058,0,.0775,.0195,46.1404,10.2678,92.6995,57.021,92.6995,119.9714Z" style="fill:#b5d7ff;"></path>
        <rect x="22.203" width="155.2613" height="214.6671" style="fill:#dbdbdb;"></rect>
        <rect x="22.203" width="155.2613" height="14.1147" style="fill:#161e2e;"></rect>
        <path d="M249.3229,211.7406v-15.8938l-11.7982-1.7117c-.481-2.7921-1.2177-5.534-2.2008-8.1912l9.3529-7.3969-7.9162-13.7542-11.0949,4.4013c-1.8253-2.1615-3.8294-4.1655-5.991-5.9907l4.4013-11.0952-13.7542-7.9162-7.3966,9.3529c-2.6573-.983-5.3993-1.7197-8.1915-2.2007l-1.7117-11.7982h-15.8938l-1.7117,11.7982c-2.7921,.481-5.5341,1.2176-8.1914,2.2007l-7.3966-9.3529-13.7544,7.9162,4.4013,11.0952c-2.1616,1.8252-4.1656,3.8291-5.9907,5.9907l-11.0952-4.4013-7.9163,13.7542,9.3531,7.3969c-.9832,2.6571-1.7199,5.3991-2.2008,8.1912l-11.798,1.7117v15.8938l11.798,1.7114c.4809,2.7922,1.2176,5.5343,2.2008,8.1915l-9.3531,7.3966,7.9163,13.7544,11.0952-4.4013c1.8252,2.1615,3.8292,4.1655,5.9907,5.9907l-4.4013,11.0951,13.7544,7.9165,7.3966-9.3531c2.6572,.9831,5.3992,1.7198,8.1914,2.2008l1.7117,11.7978h15.8938l1.7117-11.798c2.7882-.4852,5.5289-1.2113,8.1915-2.1704l7.3966,9.3221,13.7542-7.9165-4.4013-11.0951c2.1615-1.8253,4.1656-3.8293,5.991-5.9907l11.0949,4.4013,7.9162-13.7544-9.3529-7.3966c.9831-2.6573,1.7198-5.3993,2.2008-8.1915l11.7982-1.7107Zm-64.2479,22.8015c-16.982,0-30.7485-13.7667-30.7485-30.7487,0-16.982,13.7667-30.7485,30.7487-30.7485,16.982,0,30.7485,13.7667,30.7485,30.7487v.0006c-.0131,16.9765-13.7722,30.7354-30.7487,30.7481v-.0002Z" style="fill:#de1b29;"></path>
        <path d="M185.075,167.0546c-20.2905,0-36.7391,16.4488-36.7391,36.7393,0,20.2905,16.4488,36.7391,36.7393,36.7391,20.2903,0,36.7388-16.4484,36.7391-36.7387,.0035-20.2872-16.4396-36.7361-36.7269-36.7397h-.0125Zm0,67.4878c-16.982,0-30.7485-13.7667-30.7485-30.7487,0-16.982,13.7667-30.7485,30.7487-30.7485,16.982,0,30.7485,13.7667,30.7485,30.7487v.0003c-.0131,16.9765-13.7722,30.7354-30.7487,30.7481Z" style="fill:#910b11;"></path>
        <path d="M263.3776,121.2068v-7.1546l-5.3107-.7709c-.2165-1.2568-.5481-2.4911-.9907-3.6872l4.2104-3.3296-3.5633-6.191-4.9946,1.9813c-.8216-.973-1.7236-1.8751-2.6965-2.6968l1.9813-4.9943-6.191-3.5633-3.3294,4.2104c-1.1962-.4424-2.4305-.774-3.6873-.9904l-.7709-5.3109h-7.1543l-.7709,5.3109c-1.2568,.2164-2.4911,.5479-3.6872,.9904l-3.3296-4.2104-6.1908,3.5637,1.9807,4.9943c-.9729,.8216-1.8749,1.7237-2.6964,2.6968l-4.9943-1.9813-3.5635,6.191,4.2104,3.3296c-.4425,1.1961-.7742,2.4304-.9908,3.6872l-5.3107,.7709v7.1546l5.3107,.7709c.2166,1.2568,.5483,2.4911,.9908,3.6872l-4.2104,3.3296,3.5635,6.191,4.9943-1.9813c.8215,.9731,1.7235,1.8752,2.6964,2.6968l-1.9807,4.9943,6.191,3.5635,3.3296-4.2104c1.1961,.4426,2.4304,.7741,3.6872,.9904l.7709,5.3109h7.1543l.7709-5.3109c1.2551-.2182,2.4888-.545,3.6873-.9767l3.3294,4.1964,6.191-3.5635-1.9813-4.9943c.973-.8216,1.875-1.7237,2.6965-2.6968l4.9946,1.9813,3.5633-6.191-4.2104-3.3296c.4425-1.1961,.7742-2.4304,.9907-3.6872l5.3104-.771Zm-28.9203,10.2638c-7.6441,0-13.8409-6.1968-13.8409-13.8409s6.1968-13.8409,13.8409-13.8409c7.6441,0,13.8409,6.1968,13.8409,13.8409h0c-.006,7.6416-6.1993,13.8349-13.8409,13.8409Z" style="fill:#910b11;"></path>
        <circle cx="34.2758" cy="7.0574" r="4.6981" style="fill:#de1b29;"></circle>
        <circle cx="47.37" cy="7.0574" r="4.6981" style="fill:#fb3;"></circle>
        <circle cx="60.4641" cy="7.0574" r="4.6981" style="fill:#00a251;"></circle>
        <path d="M132.1821,111.5929v-42.6494h-31.4781v-13.5401h-1.7416v13.5401h-31.4781v42.6494h-15.9906v15.9823h1.7412v-14.2407h30.2401v14.2407h1.7416v-14.2407h29.2333v14.2407h1.7413v-14.2407h30.2418v14.2407h1.7414v-15.9823h-15.9924Zm-62.9562-40.9079h61.2149v40.9079h-61.2149v-40.9079Z" style="fill:#515252;"></path>
        <path d="M79.2487,25.0251h41.1702c3.4109,0,6.176,2.7651,6.176,6.176v25.5283c0,3.4109-2.7651,6.176-6.176,6.176h-41.1699c-3.411,0-6.1761-2.7652-6.1761-6.1762V31.2008c.0001-3.4108,2.7651-6.1757,6.1759-6.1757Z" style="fill:#002c68;"></path>
        <rect x="47.9869" y="76.723" width="40.7367" height="28.8316" rx="4.7007" ry="4.7007" style="fill:#004aa0;"></rect>
        <rect x="40.7739" y="119.372" width="23.1802" height="16.406" rx="2.6748" ry="2.6748" style="fill:#474f59;"></rect>
        <rect x="72.7567" y="119.372" width="23.1801" height="16.406" rx="2.6748" ry="2.6748" style="fill:#474f59;"></rect>
        <rect x="103.7304" y="119.372" width="23.1802" height="16.406" rx="2.6748" ry="2.6748" style="fill:#002c68;"></rect>
        <rect x="135.7131" y="119.372" width="23.1802" height="16.406" rx="2.6748" ry="2.6748" style="fill:#002c68;"></rect>
        <path d="M115.6444,76.723h31.3347c2.5962,0,4.7008,2.1046,4.7008,4.7008v19.4301c0,2.5961-2.1046,4.7007-4.7007,4.7007h-31.3347c-2.5961,0-4.7007-2.1046-4.7007-4.7007h0v-19.4303c0-2.5961,2.1045-4.7006,4.7006-4.7007Z" style="fill:#004aa0;"></path>
        <path d="M82.5311,39.4979h34.6049c.8024,0,1.4529-.6505,1.4529-1.4529s-.6505-1.4529-1.4529-1.4529h-34.6049c-.8024,0-1.4529,.6505-1.4529,1.4529s.6505,1.4529,1.4529,1.4529Z" style="fill:#004aa0;"></path>
        <path d="M117.1361,48.4325h-34.6049c-.8024,0-1.4529,.6505-1.4529,1.4529s.6505,1.4529,1.4529,1.4529h34.6049c.8024,0,1.4529-.6505,1.4529-1.4529s-.6505-1.4529-1.4529-1.4529Z" style="fill:#004aa0;"></path>
        <path d="M119.2148,87.0912h24.1941c.5348,0,.9684-.4336,.9684-.9684s-.4336-.9684-.9684-.9684h-24.1941c-.5348,0-.9684,.4336-.9684,.9684s.4336,.9684,.9684,.9684Z" style="fill:#002c68;"></path>
        <path d="M143.409,95.1863h-24.1941c-.5349,0-.9685,.4336-.9685,.9685s.4336,.9685,.9685,.9685h24.1941c.5349,0,.9685-.4336,.9685-.9685s-.4336-.9685-.9685-.9685Z" style="fill:#002c68;"></path>
        <path d="M56.2584,87.0912h24.1939c.5348,0,.9684-.4336,.9684-.9684s-.4336-.9684-.9684-.9684h-24.1939c-.5348,0-.9684,.4336-.9684,.9684s.4336,.9684,.9684,.9684Z" style="fill:#002c68;"></path>
        <path d="M80.4523,95.1863h-24.1939c-.5349,0-.9685,.4336-.9685,.9685s.4336,.9685,.9685,.9685h24.1939c.5349,0,.9685-.4336,.9685-.9685s-.4336-.9685-.9685-.9685Z" style="fill:#002c68;"></path>
        <path d="M44.4635,124.9318h15.8009c.3494-.0047,.6288-.2917,.6241-.6411-.0046-.3427-.2813-.6195-.6241-.6241h-15.8009c-.3494,.0049-.6286,.292-.6237,.6414,.0048,.3425,.2813,.619,.6237,.6237Z" style="fill:#fff;"></path>
        <path d="M60.2644,130.2185h-15.8009c-.3493-.0048-.6364,.2744-.6412,.6237-.0048,.3493,.2744,.6364,.6237,.6412,.0058,0,.0117,0,.0175,0h15.8009c.3493,.0048,.6364-.2744,.6412-.6237,.0048-.3493-.2744-.6364-.6237-.6412-.0058,0-.0117,0-.0175,0Z" style="fill:#fff;"></path>
        <path d="M107.4201,124.9318h15.8009c.3494-.0047,.6288-.2917,.6241-.6411-.0046-.3427-.2813-.6195-.6241-.6241h-15.8009c-.3494,.0049-.6286,.292-.6237,.6414,.0048,.3425,.2813,.619,.6237,.6237Z" style="fill:#004aa0;"></path>
        <path d="M123.2211,130.2185h-15.801c-.3493-.0048-.6364,.2744-.6412,.6237-.0048,.3493,.2744,.6364,.6237,.6412,.0058,0,.0117,0,.0175,0h15.8009c.3493,.0048,.6364-.2744,.6412-.6237,.0048-.3493-.2744-.6364-.6237-.6412-.0058,0-.0117,0-.0175,0h.0001Z" style="fill:#004aa0;"></path>
        <path d="M76.4461,124.9318h15.801c.3494-.0047,.6288-.2917,.6241-.6411-.0046-.3427-.2813-.6195-.6241-.6241h-15.801c-.3494,.0049-.6286,.292-.6237,.6414,.0048,.3425,.2813,.619,.6237,.6237Z" style="fill:#fff;"></path>
        <path d="M92.2472,130.2185h-15.801c-.3493,.0048-.6285,.2919-.6237,.6412,.0047,.3425,.2812,.619,.6237,.6237h15.801c.3493-.0048,.6285-.2919,.6237-.6412-.0047-.3425-.2812-.619-.6237-.6237Z" style="fill:#fff;"></path>
        <path d="M139.4028,124.9318h15.8008c.3493-.0047,.6288-.2917,.6241-.6411-.0046-.3427-.2813-.6195-.6241-.6241h-15.8008c-.3494-.0049-.6365,.2744-.6414,.6237-.0049,.3493,.2744,.6365,.6237,.6414,.0059,0,.0118,0,.0177,0Z" style="fill:#004aa0;"></path>
        <path d="M155.2036,130.2185h-15.8008c-.3493-.0048-.6364,.2744-.6412,.6237-.0048,.3493,.2744,.6364,.6237,.6412,.0058,0,.0117,0,.0175,0h15.8008c.3493-.0048,.6285-.2919,.6237-.6412-.0047-.3425-.2812-.619-.6237-.6237Z" style="fill:#004aa0;"></path>
        <rect x="38.5997" y="160.1292" width="37.2141" height="4.3139" style="fill:#515252;"></rect>
        <rect x="81.227" y="160.1292" width="21.5168" height="4.3139" style="fill:#515252;"></rect>
        <rect x="38.5997" y="170.8884" width="12.4792" height="4.3139" style="fill:#515252;"></rect>
        <rect x="54.7837" y="170.8884" width="15.6066" height="4.3139" style="fill:#515252;"></rect>
        <rect x="74.065" y="170.8884" width="36.7901" height="4.3139" style="fill:#515252;"></rect>
        <rect x="38.5997" y="181.6477" width="48.7566" height="4.3139" style="fill:#515252;"></rect>
        <rect x="91.1873" y="181.6477" width="11.5565" height="4.3139" style="fill:#515252;"></rect>
        <rect x="38.5997" y="192.4069" width="14.1993" height="4.3139" style="fill:#515252;"></rect>
        <rect x="55.4873" y="192.4069" width="8.4136" height="4.3139" style="fill:#515252;"></rect>
        <rect x="66.1835" y="192.4069" width="14.527" height="4.3139" style="fill:#515252;"></rect>
        <rect x="83.6817" y="192.4069" width="31.6388" height="4.3139" style="fill:#515252;"></rect>
      </g>
    </g>
  </g>
</svg>
