<?xml version="1.0" encoding="UTF-8"?>
<svg xmlns="http://www.w3.org/2000/svg" id="Layer_2" width="280" height="270" viewBox="0 0 280 270">
  <defs>
    <style>.cls-1{fill:#b5d7ff;}.cls-2{fill:#004aa0;}.cls-3{fill:#998675;}.cls-4{fill:#c7b299;}.cls-5{fill:#a67c52;}.cls-6{fill:#c69c6d;}.cls-7{fill:#002c68;}.cls-8{fill:#404040;}.cls-9{fill:#161e2e;}</style>
  </defs>
  <g id="Layer_1-2">
    <g>
      <ellipse class="cls-1" cx="140" cy="135" rx="140" ry="135"></ellipse>
      <g>
        <path class="cls-7" d="m128.5,149.98c-15.08-13.85-38.15-13.54-38.15-13.54h-35.08s-23.08-.31-38.15,13.54c-6.22,5.71-9.45,12.16-11.11,24.22,17.42,55.44,70.82,95.79,134,95.79.37,0,.74-.01,1.11-.01.07-88.56,2.23-106.37-12.62-120Z"></path>
        <path class="cls-3" d="m57.27,116.45s5.23,14.77-2.15,20c0,0,4.76,11.69,17.68,11.69,12.92,0,17.68-11.69,17.68-11.69-7.38-5.23-2.15-20-2.15-20h-31.06Z"></path>
        <path class="cls-4" d="m72.8,125.37c-18.82,0-33.09-23.08-33.09-26.46s0-7.69,0-7.69c-.97,2.15-11.68,1.54-11.68-11.69,0-13.23,9.08-9.85,9.08-9.85,0-37.23,19.79-43.38,35.69-43.38,15.9,0,35.69,6.15,35.69,43.38,0,0,9.08-3.38,9.08,9.85s-10.71,13.85-11.68,11.69v7.69c0,3.38-14.27,26.46-33.09,26.46Z"></path>
        <path class="cls-9" d="m81.46,19.83s44.92-14.77,27.38,60.62c0,0-1.54,2.77-1.54-4.31s.62-40.92-16.92-40.92c-7.38,0-9.85,4.31-16,4.31s-17.54-5.85-23.38-1.85c-5.85,4-10.46,12.62-12.92,45.85,0,0-1.85,2.15-2.77-7.69-.92-9.85-8.62-44.62,7.69-53.54,16.31-8.92,28.31-9.23,38.46-2.46Z"></path>
      </g>
      <g>
        <path class="cls-9" d="m174.71,198.92c-13.64,4.66-29.62,1.67-40.65-7.61-11.03-9.28-16.72-24.51-14.46-38.74,2.25-14.23,12.36-26.97,25.72-32.39-8.04-8.26-6.18-23.84,3.59-29.96l68.96-41.66c9.51-2.99,20.56-.43,27.79,6.45,7.22,6.88,10.33,17.79,7.8,27.44,11.85,4.84,13.48,23.52,9.17,35.57-3.88,10.86-10.12,15.39-9.81,26.91.15,5.64,3.18,10.81,4.15,16.37s-2.72,17.71-12.26,17.71l-69.99,19.91Z"></path>
        <path class="cls-2" d="m255.82,182.33c-15.08-13.85-38.15-13.54-38.15-13.54h-35.08s-23.08-.31-38.15,13.54c-14.49,13.3-12.78,30.59-12.63,87.43,2.71.15,5.44.24,8.19.24,54.52,0,101.75-30.05,124.88-73.91-1.91-5.54-4.78-9.83-9.06-13.76Z"></path>
        <path class="cls-5" d="m215.65,148.79s-5.23,14.77,2.15,20c0,0-4.76,34.5-17.68,34.5-12.92,0-17.68-34.5-17.68-34.5,7.38-5.23,2.15-20,2.15-20h31.06Z"></path>
        <path class="cls-6" d="m200.12,157.72c18.82,0,33.09-23.08,33.09-26.46,0-3.38,0-7.69,0-7.69.97,2.15,11.68,1.54,11.68-11.69,0-13.23-9.08-9.85-9.08-9.85,0-37.23-19.79-43.38-35.69-43.38-15.9,0-35.69,6.15-35.69,43.38,0,0-9.08-3.38-9.08,9.85,0,13.23,10.71,13.85,11.68,11.69v7.69c0,3.38,14.27,26.46,33.09,26.46Z"></path>
        <path class="cls-8" d="m191.46,52.18s-44.92-14.77-27.38,60.62c0,0,1.54,2.77,1.54-4.31s-.62-40.92,16.92-40.92c7.38,0,9.85,4.31,16,4.31,6.15,0,17.54-5.85,23.38-1.85,5.85,4,10.46,12.62,12.92,45.85,0,0,1.85,2.15,2.77-7.69s18.39-44.35-9.11-56.65c-16.97-7.59-26.89-6.12-37.05.65Z"></path>
        <path class="cls-8" d="m219.84,48.97c-5.93-12.12-23.68-19.5-36.66-15.82-12.98,3.68-22.99,14.59-28.52,26.89-5.53,12.3-7.17,25.97-8.12,39.43-.37,5.3-.24,11.53,4.02,14.7,4.85,3.6,11.72.87,16.89-2.27,21.87-13.26,40.48-40.3,52.38-62.93Z"></path>
      </g>
    </g>
  </g>
</svg>
