<?xml version="1.0" encoding="UTF-8"?>
<svg xmlns="http://www.w3.org/2000/svg" id="Layer_2" width="310.28" height="286.93" viewBox="0 0 310.28 286.93">
  <defs>
    <style>.cls-1{fill:#004aa0;}.cls-1,.cls-2,.cls-3,.cls-4{fill-rule:evenodd;}.cls-5{fill:#fff;}.cls-6{fill:#b5d7ff;}.cls-7{fill:#fb3;}.cls-2{fill:#00a251;}.cls-8,.cls-4{fill:#de1b29;}.cls-3{fill:#f2f2f2;}.cls-9{fill:#002c68;}</style>
  </defs>
  <g id="Layer_1-2">
    <g>
      <ellipse class="cls-6" cx="155.58" cy="151.93" rx="140" ry="135"></ellipse>
      <polygon class="cls-2" points="167.79 36.93 146.47 0 125.15 36.93 137.66 36.93 137.66 142.12 155.28 142.12 155.28 36.93 167.79 36.93"></polygon>
      <polygon class="cls-2" points="209.66 79.4 188.34 42.47 167.02 79.4 179.53 79.4 179.53 142.12 197.15 142.12 197.15 79.4 209.66 79.4"></polygon>
      <polygon class="cls-2" points="251.54 61.75 230.22 24.82 208.89 61.75 221.41 61.75 221.41 142.12 239.02 142.12 239.02 61.75 251.54 61.75"></polygon>
      <g>
        <path class="cls-1" d="m135.12,113.86c-14.63-28.99-39.11-54.25-71.45-67.66,3.31,6.51,5.78,14.07,6.77,21.63-7.03-3.02-13.94-6.44-20.69-10.26,1.61,7.41,4.97,14.27,9.61,19.63l1.69,1.79c-9.31,2.72-17.89,8.42-26.27,14.04-7.37,4.94-14.73,9.88-22.1,14.82-3.5,2.35-7.08,4.77-9.65,8.42-2.57,3.65-3.93,8.85-2.38,13.22,1.26,3.53,4.11,5.86,6.82,7.98,5.18,4.06,11.08,8.31,17.2,6.96,3.42-.76,6.38-3.2,9.6-4.78,14.14-6.95,31.75,3.16,45.17-5.54,2.75,8.08-22.49,41.45-26.24,48.95-3.21,6.41-5.84,13.73-6.1,21.13-.08,2.07,1.38,3.78,3.14,3.78l100.57-1.34c2.17,0,3.92-2.09,3.89-4.63-.37-30.25-5.65-60.56-19.56-88.15Z"></path>
        <path class="cls-1" d="m151.28,241.58l-101.88,1.34c-4.2,0-7.6-3.4-7.6-7.6v-14.62c0-4.2,3.4-7.6,7.6-7.6l101.88-1.34c4.2,0,7.6,3.4,7.6,7.6v14.62c0,4.2-3.4,7.6-7.6,7.6Z"></path>
      </g>
      <g>
        <circle class="cls-9" cx="200.04" cy="198.92" r="84.86"></circle>
        <circle class="cls-5" cx="200.04" cy="198.92" r="63.32"></circle>
        <circle class="cls-8" cx="200.04" cy="198.92" r="41.93"></circle>
        <circle class="cls-7" cx="200.04" cy="198.92" r="18.13"></circle>
        <polygon class="cls-4" points="259.44 149.01 258.92 128.75 286.19 107.52 286.71 127.78 259.44 149.01"></polygon>
        <polygon class="cls-4" points="263.5 154.22 283.01 159.7 310.28 138.47 290.77 132.99 263.5 154.22"></polygon>
        <path class="cls-3" d="m197.47,201.42h0c-1.17-1.5-.9-3.66.6-4.83l88.38-68.78c1.5-1.17,3.66-.9,4.83.6h0c1.17,1.5.9,3.66-.6,4.83l-88.38,68.78c-1.5,1.17-3.66.9-4.83-.6Z"></path>
      </g>
    </g>
  </g>
</svg>
