<?xml version="1.0" encoding="UTF-8"?>
<svg xmlns="http://www.w3.org/2000/svg" id="Layer_2" viewBox="0 0 294.8079 284.279">
  <g id="Layer_1-2">
    <g>
      <ellipse cx="147.4039" cy="142.1395" rx="147.4039" ry="142.1395" style="fill:#b5d7ff;"></ellipse>
      <path d="M74.0284,188.498v5.2644c0,6.9069,23.5741,12.4977,52.6443,12.4977s52.6443-5.5908,52.6443-12.4977v-5.2644H74.0284Z" style="fill:#282d33;"></path>
      <ellipse cx="126.6832" cy="188.498" rx="52.6548" ry="12.4977" style="fill:#b6c0c0;"></ellipse>
      <path d="M216.3258,23.2688H37.03c-6.0003-.094-10.9497,4.6765-11.0764,10.6763v119.7973c.1324,5.9956,5.08,10.7598,11.0764,10.6657H216.3258c5.9981,.0941,10.9488-4.6685,11.0869-10.6657V33.945c-.1324-6.0014-5.0847-10.7703-11.0869-10.6763Zm-4.0641,125.704H41.1046V38.7041H212.2617v110.2687Z" style="fill:#161e2e;"></path>
      <rect x="38.325" y="35.935" width="176.7057" height="115.8279" style="fill:#fff;"></rect>
      <rect x="106.9942" y="164.408" width="39.3779" height="24.09" style="fill:#282d33;"></rect>
      <path d="M194.1836,239.7104l15.509-13.5085,15.5301,13.5085s13.0663-5.4961,17.3621-25.9957c-21.5899-5.475-44.2049-5.475-65.7948,0,4.3063,20.4681,17.3937,25.9957,17.3937,25.9957Z" style="fill:#002c68;"></path>
      <path d="M264.1163,221.5481c-6.8995-3.3084-14.1125-5.9185-21.5315-7.7913-4.2958,20.4997-17.3621,25.9957-17.3621,25.9957l-15.5301-13.5085-15.509,13.5085s-13.0874-5.4961-17.3937-25.9957c-7.4156,1.8726-14.6252,4.4827-21.521,7.7913-9.2092,4.5437-15.015,13.9475-14.951,24.2164v13.3295s20.5944,17.899,69.3746,17.899,69.3746-17.899,69.3746-17.899v-13.4032c.0408-10.2438-5.7622-19.6145-14.951-24.1427Z" style="fill:#002c68;"></path>
      <path d="M233.0246,211.5878c-10.0866-9.9919-6.6964-23.2793-6.6016-23.5952-9.894,7.531-23.5982,7.531-33.4923,0,0,0,3.6009,13.519-6.5911,23.6267,0,8.0651,23.353,14.6141,23.353,14.6141,0,0,23.3635-6.5489,23.3635-14.6141l-.0316-.0316Z" style="fill:#e4c2a4;"></path>
      <path d="M221.2323,236.2885l-11.5817-10.0445-11.4554,10.0445,6.9701,8.4231-5.2644,31.9761c3.1587,.1579,6.4331,.2632,9.8761,.2632s6.7279-.1053,9.8866-.2632l-5.3171-31.9761,6.8859-8.4231Z" style="fill:#b5d7ff;"></path>
      <path d="M202.2908,134.9378s11.9608,18.5202,41.4837,14.5509c-1.274-28.4279-16.9725-35.1032-34.0819-35.1032-17.4042,0-33.3554,6.9385-34.1345,36.5983,.4001-.5054,10.9395-13.6664,26.7327-16.046Z" style="fill:#fb3;"></path>
      <path d="M245.1854,153.1106c-.4449-.041-.8935,.0128-1.3161,.1579,0-1.3056,0-2.5585-.0948-3.7904-29.4808,3.9694-41.4837-14.5509-41.4837-14.5509-15.7933,2.4006-26.3221,15.5406-26.7328,16.046v2.2953c-.4259-.1466-.8782-.2005-1.3266-.1579-3.1587,.3053-5.2644,5.0223-4.7275,10.5289,.537,5.5066,3.4008,9.7076,6.5068,9.3917,.3868-.0434,.7639-.1501,1.1161-.3159,2.6954,10.6341,8.4231,19.5205,15.7933,24.9113,9.8949,7.54,23.6079,7.54,33.5028,0,7.4334-5.4013,13.1611-14.2771,15.867-24.9323,.3507,.1698,.7284,.2767,1.1161,.3159,3.0955,.3159,6.0014-3.8957,6.4963-9.3917s-1.6214-10.1919-4.7169-10.5078Z" style="fill:#f7d1b0;"></path>
      <path d="M233.9932,191.5619h-24.4585c-.8432-.0018-1.5253-.6867-1.5235-1.5298,.0018-.8407,.6828-1.5218,1.5235-1.5235h24.4585c8.2466-.0058,14.9336-6.6834,14.951-14.9299-.07-.8403,.5545-1.5781,1.3947-1.6481,.8403-.07,1.5781,.5545,1.6481,1.3947,.007,.0843,.007,.169,0,.2534-.0174,9.9288-8.065,17.9717-17.9938,17.9833Z" style="fill:#002c68;"></path>
      <path d="M252.1766,143.6346c0-22.5002-18.257-39.4832-42.4839-39.4832s-42.4839,16.983-42.4839,39.4832v8.1914h3.0007v-8.1914c0-21.1314,16.604-36.4614,39.4832-36.4614s39.4832,15.33,39.4832,36.4614v8.1914h3.0007v-8.1914Z" style="fill:#002c68;"></path>
      <path d="M209.6926,107.1311c-22.8792,0-39.4832,15.33-39.4832,36.4614v7.1807c.1628,.5582,.7473,.8788,1.3056,.716,.3453-.1007,.6153-.3707,.716-.716v-7.1386c0-20.0048,15.7933-34.4504,37.4617-34.4504s37.4722,14.4456,37.4722,34.4504v7.1807c-.1725,.5553,.1379,1.1453,.6932,1.3178s1.1453-.1379,1.3178-.6932c.0632-.2034,.0632-.4212,0-.6246v-7.1807c0-21.1735-16.604-36.5035-39.4832-36.5035Z" style="fill:#282d33;"></path>
      <path d="M168.9776,147.4776v28.7964c3.4114,0,6.8753-2.7901,6.8753-6.2015v-16.3934c0-3.4219-3.464-6.2015-6.8753-6.2015Z" style="fill:#b6c0c0;"></path>
      <path d="M250.4182,147.4776c-3.4114,0-6.8859,2.7796-6.8859,6.2015v16.3618c0,3.4114,3.4745,6.2015,6.8859,6.2015v-28.7648Z" style="fill:#b6c0c0;"></path>
      <path d="M168.9776,176.274c-3.0463-.0116-5.5114-2.4813-5.5171-5.5276v-17.7516c.0115-3.0422,2.4749-5.5056,5.5171-5.5171v28.7964Z" style="fill:#002c68;"></path>
      <path d="M173.4418,145.8562c-.0058,2.4655-2.0092,4.4595-4.4747,4.4537-2.4655-.0058-4.4595-2.0092-4.4537-4.4747,.0058-2.4614,2.0028-4.4537,4.4642-4.4537,2.4655,0,4.4642,1.9987,4.4643,4.4642,0,.0035,0,.007,0,.0106Z" style="fill:#ccd5d5;"></path>
      <path d="M250.4182,176.274c3.0439-.0173,5.5056-2.4837,5.5171-5.5276v-17.7516c-.0115-3.0422-2.4749-5.5056-5.5171-5.5171v28.7964Z" style="fill:#002c68;"></path>
      <path d="M245.9435,145.8562c.0058,2.4655,2.0092,4.4595,4.4748,4.4537,2.4655-.0058,4.4595-2.0092,4.4537-4.4748-.0058-2.4573-1.9964-4.4479-4.4537-4.4537-2.4655-.0058-4.4689,1.9882-4.4748,4.4537,0,.007,0,.0141,0,.0211Z" style="fill:#ccd5d5;"></path>
      <rect x="200.3535" y="186.0238" width="18.615" height="8.023" rx=".3475" ry=".3475" style="fill:#b6c0c0;"></rect>
      <polygon points="260.189 155.627 255.9353 153.2159 255.9353 170.4937 260.189 168.0931 260.189 161.86 260.189 155.627" style="fill:#b6c0c0;"></polygon>
      <polygon points="159.2068 168.0931 163.4499 170.4937 163.4499 153.2159 159.2068 155.627 159.2068 161.86 159.2068 168.0931" style="fill:#b6c0c0;"></polygon>
      <path d="M168.03,209.6294v-22.4686c0-1.0542-.8515-1.9105-1.9057-1.9163h-3.3587v-7.0438l-9.2443,6.6858c-.3297,.2325-.7232,.3575-1.1266,.358h-30.0072c-1.0559,.0058-1.9105,.8603-1.9163,1.9163v22.4686c.0058,1.0559,.8603,1.9105,1.9163,1.9163h43.7895c1.0336-.0341,1.8537-.8821,1.8531-1.9163Z" style="fill:#de1b29;"></path>
      <path d="M158.4276,189.2772c-2.8028-.0058-5.0796,2.2616-5.0854,5.0644,0,.0035,0,.007,0,.0106,.0628,.6774,.6629,1.1757,1.3404,1.1129,.5904-.0548,1.0581-.5224,1.1129-1.1129,0-1.4537,1.1785-2.6322,2.6322-2.6322s2.6322,1.1785,2.6322,2.6322c0,.9792-.4106,1.3266-1.3582,2.0005-1.5571,.8811-2.5128,2.5384-2.4953,4.3274-.0628,.6774,.4354,1.2775,1.1129,1.3404,.6774,.0628,1.2775-.4354,1.3404-1.1129,.007-.0757,.007-.1518,0-.2275,0-1.2529,.558-1.6636,1.4846-2.3269,1.4518-.8105,2.3564-2.3383,2.369-4.001,0-2.8028-2.2721-5.0749-5.0749-5.0749-.0035,0-.007,0-.0106,0Z" style="fill:#fff;"></path>
      <path d="M158.4276,204.9652c-.6979,.0447-1.2389,.6274-1.2319,1.3266-.0628,.6774,.4354,1.2775,1.1129,1.3404,.6774,.0628,1.2775-.4354,1.3404-1.1129,.007-.0757,.007-.1518,0-.2275v-.2001c-.0103-.6337-.5324-1.1391-1.1662-1.1288-.0184,.0003-.0368,.001-.0552,.0022Z" style="fill:#fff;"></path>
      <rect x="125.1565" y="189.9194" width="13.5085" height="2.4427" style="fill:#fff;"></rect>
      <rect x="141.5288" y="189.9194" width="7.3702" height="2.4427" style="fill:#fff;"></rect>
      <rect x="135.3905" y="197.1738" width="13.519" height="2.4322" style="fill:#fff;"></rect>
      <rect x="125.1565" y="197.1738" width="7.3702" height="2.4322" style="fill:#fff;"></rect>
      <rect x="125.1565" y="204.4282" width="17.6042" height="2.4322" style="fill:#fff;"></rect>
      <path d="M151.7452,40.5734c-1.7783-.2944-3.5779-.4414-5.3804-.4396-1.7887-.0027-3.5744,.1444-5.3385,.4396l-1.7795,11.2213c-.9853,.3236-1.9441,.7225-2.8681,1.1933l-9.2116-6.6574c-2.9222,2.0882-5.4823,4.6413-7.5786,7.5577l6.6784,9.1697c-.4484,.91-.8399,1.8469-1.1724,2.8053l-11.2423,1.7795c-.2882,1.7788-.4283,3.5784-.4187,5.3804-.0088,1.788,.1312,3.5737,.4187,5.3385l11.2423,1.7795c.3255,.9814,.7172,1.9397,1.1724,2.8681l-6.6784,9.2116c2.1075,2.9068,4.666,5.4582,7.5786,7.5577l9.2116-6.6574c.9281,.4619,1.8863,.8605,2.8681,1.1933l1.7795,11.326c1.7641,.2952,3.5499,.4423,5.3385,.4396,1.8025,.0018,3.6021-.1453,5.3804-.4396l1.7795-11.2004c.9873-.3363,1.9522-.7349,2.8891-1.1933l9.1488,6.6574c2.9317-2.077,5.4935-4.6317,7.5786-7.5577l-6.6784-9.2116c.469-.9275,.8747-1.8858,1.2143-2.8681l11.2213-1.7795c.5861-3.5489,.5861-7.17,0-10.7189l-11.2213-1.9051c-.3435-.9876-.7491-1.9526-1.2143-2.8891l6.6784-9.1697c-2.0751-2.9343-4.6385-5.4907-7.5786-7.5577l-9.1488,6.6574c-.9329-.4672-1.8984-.866-2.8891-1.1933l-1.7795-11.1376Z" style="fill:#002c68;"></path>
      <path d="M146.3648,60.9644c6.6945-.0115,12.1309,5.4061,12.1425,12.1006,.0115,6.6945-5.4061,12.1309-12.1006,12.1425-6.6945,.0115-12.1309-5.4061-12.1425-12.1006,0-6.6898,5.4109-12.1194,12.1006-12.1425Z" style="fill:#fff;"></path>
      <path d="M90.3837,78.0058c-3.5349-.5861-7.1421-.5861-10.677,0l-1.7795,11.2004c-.9788,.3488-1.9365,.7542-2.8681,1.2143l-9.2116-6.6784c-2.918,2.1014-5.4772,4.6606-7.5786,7.5786l6.6784,9.1697c-.4396,.9421-.8583,1.9051-1.2143,2.91l-11.2004,1.7795c-.2882,1.7647-.4283,3.5504-.4187,5.3385-.0088,1.795,.1312,3.5876,.4187,5.3594l11.2004,1.7586c.3559,1.0049,.7746,1.9679,1.2143,2.91l-6.6784,9.2116c2.1026,2.905,4.662,5.4502,7.5786,7.5367l9.2116-6.6784c.9236,.4776,1.8824,.8835,2.8681,1.2143l1.7795,11.2213c3.5371,.5581,7.1399,.5581,10.677,0l1.8004-11.2213c.9857-.3307,1.9446-.7367,2.8681-1.2143l9.2116,6.6784c2.9104-2.0868,5.4628-4.6322,7.5577-7.5367l-6.6784-9.2116c.4778-.9379,.8837-1.9107,1.2143-2.91l11.2213-1.7586c.2875-1.7718,.4275-3.5645,.4187-5.3594,.0096-1.7881-.1305-3.5738-.4187-5.3385l-11.2213-1.7795c-.3306-.9993-.7365-1.9721-1.2143-2.91l6.6784-9.1697c-2.0939-2.9173-4.6461-5.4766-7.5577-7.5786l-9.2116,6.6784c-.9317-.4601-1.8893-.8655-2.8681-1.2143l-1.8004-11.2004Z" style="fill:#002c68;"></path>
      <path d="M85.0242,98.3968c6.6945-.0116,12.1309,5.4061,12.1425,12.1006,.0116,6.6945-5.4061,12.1309-12.1006,12.1425-6.6945,.0115-12.1309-5.4061-12.1425-12.1006,0-.007,0-.0139,0-.0209,.0115-6.6816,5.419-12.0985,12.1006-12.1216Z" style="fill:#fff;"></path>
    </g>
  </g>
</svg>
