<?xml version="1.0" encoding="UTF-8"?><svg id="Layer_2" xmlns="http://www.w3.org/2000/svg" width="76.17" height="80.61" viewBox="0 0 76.17 80.61"><defs><style>.cls-1{fill:#fff;}.cls-2{fill:#b5d7ff;}.cls-3{fill:#de1b29;}.cls-4{fill:#404040;}</style></defs><g id="Layer_1-2"><g><g><path class="cls-1" d="M15.13,35.65c0-17.2,10.33-25.44,23.06-25.44s23.06,8.24,23.06,25.44-10.32,31.14-23.06,31.14-23.06-13.94-23.06-31.14Z"/><path class="cls-2" d="M14.77,37.55s11.45,1.8,21.57-1.94c10.11-3.74,12.78-8.55,12.78-8.55l3.81,8.06s3.52,4.2,5.21,5.28c1.7,1.09,3.12,1.95,3.12,1.95v-15.29l-6.04-9.82-9.27-5.89-10.42-1.01-9.42,2.9-8,8.55-3.23,7.06-.09,8.69Z"/><path class="cls-4" d="M55.71,40.85c-3.35-2.53-5.91-7.76-7.2-10.85-2.95,2.72-9.43,7.56-19.69,9.46-3.28,.62-6.41,.78-9.29,.48l.34-3.24c2.6,.27,5.33,.13,8.35-.44,13.1-2.42,19.57-10.16,19.64-10.24l1.86-2.26,.95,2.77c.03,.09,2.99,8.68,7.02,11.72l-1.97,2.6Z"/><path class="cls-4" d="M38.19,68.42c-13.61,0-24.69-14.7-24.69-32.77,0-16.44,9.69-27.06,24.69-27.06s24.69,10.62,24.69,27.06c0,18.07-11.08,32.77-24.69,32.77Zm0-56.57c-13.22,0-21.43,9.12-21.43,23.81,0,16.27,9.61,29.51,21.43,29.51s21.43-13.24,21.43-29.51c0-14.68-8.21-23.81-21.43-23.81Z"/><path class="cls-4" d="M69.72,54.22h-3.06v-3.26h1.71l4.51-4.49,.02-12.85-8.7-8.59-.11-.44c-1.26-4.85-3.68-9.29-6.98-12.84-5.1-5.48-11.86-8.5-19.02-8.5V0c8.08,0,15.68,3.4,21.4,9.54,3.57,3.84,6.2,8.6,7.63,13.8l9.04,8.92-.02,15.57-6.42,6.4Z"/><path class="cls-4" d="M22.89,75.1c-1.36,0-7.92-.21-11.98-4.17-2.14-2.08-3.22-4.8-3.22-8.09,0-3.69,.07-6.81,.13-8.62h-1.37L.02,47.83l-.02-15.57,9.01-8.82c1.42-5.24,4.06-10.03,7.66-13.9C22.37,3.41,29.95,.03,37.99,0l.08,3.26h-.07c-7.13,.02-13.86,3.04-18.94,8.5-3.33,3.58-5.75,8.05-7.01,12.93l-.11,.44L3.26,33.63l.02,12.85,4.51,4.49h3.41l-.07,1.7s-.19,4.39-.19,10.18c0,2.41,.73,4.29,2.23,5.76,3.48,3.38,9.79,3.26,9.86,3.24l.09,3.26s-.11,0-.24,0Z"/><g><path class="cls-3" d="M22.69,73.08c0-3.26,4.76-5.9,10.62-5.9s10.62,2.64,10.62,5.9-4.76,5.9-10.62,5.9-10.62-2.64-10.62-5.9Z"/><path class="cls-4" d="M33.32,80.61c-6.87,0-12.25-3.31-12.25-7.53s5.38-7.53,12.25-7.53,12.25,3.31,12.25,7.53-5.38,7.53-12.25,7.53Zm0-11.81c-5.15,0-9,2.26-9,4.28s3.85,4.27,9,4.27,8.99-2.26,8.99-4.27-3.85-4.28-8.99-4.28Z"/></g></g><g><polygon class="cls-3" points="10.47 24.29 10.47 52.6 7.12 52.6 1.65 47.15 1.65 32.83 10.47 24.29"/><path class="cls-4" d="M12.1,54.22H6.45L.02,47.83v-15.69l12.08-11.7V54.22Zm-4.31-3.26h1.05V28.14l-5.56,5.39v12.95l4.51,4.49Z"/></g><g><polygon class="cls-3" points="65.67 24.19 65.67 52.27 69.05 52.6 74.54 45.74 74.54 32.94 65.67 24.19"/><path class="cls-4" d="M69.77,54.3l-5.73-.55V20.29l12.13,11.97v14.05l-6.4,7.99Zm-2.47-3.51l1.03,.1,4.58-5.72v-11.54l-5.61-5.53v22.7Z"/></g></g></g></svg>