<?xml version="1.0" encoding="UTF-8"?><svg id="Layer_2" xmlns="http://www.w3.org/2000/svg" width="73.73" height="67.89" viewBox="0 0 73.73 67.89"><defs><style>.cls-1{fill:#fff;}.cls-2{fill:#b5d7ff;}.cls-3{fill:#de1b29;}.cls-4{fill:#404040;}</style></defs><g id="Layer_1-2"><g><polygon class="cls-2" points="25.1 31.12 30.7 25.73 37.8 32.03 44.56 26.54 49.47 31.18 42.01 37.51 47.22 43.23 54.99 42.12 61.32 45.09 64.3 49.72 65.23 57.06 60.21 51.98 54.25 50.23 50.85 54.82 51.63 59.6 56.83 64.76 50.85 64.76 43.85 60.5 42.17 53.91 43.28 48.45 36.79 43.6 27.44 52.65 26.84 58.49 16.04 65.8 8.72 58.93 17.05 47.79 23.59 47.56 32.09 38.27 25.1 31.12"/><path class="cls-1" d="M33.63,23.53l-10.35,10.35L3.62,13.89C.9,11.16,.98,6.68,3.79,3.87c2.81-2.81,7.29-2.88,10.01-.17l19.83,19.83Z"/><path class="cls-3" d="M33.63,23.53L13.8,3.7c-.29-.29-.61-.53-.93-.76-.57,.32-1.11,.7-1.6,1.18-2.81,2.81-2.89,7.29-.17,10.01l15.83,16.09,6.7-6.7Z"/><path class="cls-1" d="M51.91,33.62l-10.35-10.35L59.92,3.62c2.72-2.72,7.2-2.64,10.01,.17,2.81,2.81,2.89,7.29,.17,10.01l-18.19,19.83Z"/><path class="cls-3" d="M59.92,3.62l-15.36,16.44,6.97,6.97L69.73,7.2c.57-.57,.99-1.24,1.32-1.94-.31-.53-.67-1.03-1.12-1.48-2.81-2.81-7.29-2.89-10.01-.17Z"/><polygon class="cls-4" points="15.46 67.89 7.04 59.46 16.16 46.19 22.17 45.89 43.17 24.89 45.48 27.2 23.59 49.09 17.94 49.38 11.27 59.07 15.9 63.7 25.8 57.22 25.8 51.41 47.75 29.46 50.06 31.78 29.07 52.76 29.07 58.99 15.46 67.89"/><path class="cls-4" d="M51.96,35.99l-12.67-12.67L58.73,2.5c3.39-3.39,8.92-3.32,12.36,.13,1.66,1.66,2.6,3.85,2.64,6.17,.04,2.34-.84,4.52-2.47,6.15l-19.3,21.04Zm-8.13-12.75l8.02,8.03,17.04-18.57c2.12-2.13,2.05-5.58-.12-7.75-2.17-2.17-5.62-2.25-7.7-.17l-17.25,18.46Z"/><rect class="cls-4" x="45.1" y="22.07" width="3.27" height="12.75" transform="translate(-6.43 41.38) rotate(-45)"/><path class="cls-4" d="M23.27,36.2L2.45,15.03C-.89,11.69-.81,6.16,2.64,2.71c3.44-3.44,8.96-3.52,12.32-.17l20.98,20.99-12.67,12.67ZM8.95,3.35c-1.43,0-2.89,.56-4,1.68-2.17,2.17-2.25,5.63-.17,7.7L23.29,31.56l8.02-8.02L12.64,4.86c-1.01-1.01-2.34-1.51-3.7-1.51Z"/><rect class="cls-4" x="22.08" y="27.07" width="12.75" height="3.27" transform="translate(-11.96 28.53) rotate(-45)"/><polygon class="cls-4" points="31.37 38.68 23.73 31.12 30.61 24.23 38.05 31.58 35.75 33.9 30.63 28.84 28.36 31.11 33.67 36.35 31.37 38.68"/><path class="cls-4" d="M53.53,66.4c-3.26,0-6.47-1.22-8.9-3.51-3.88-3.64-5.13-9.17-3.28-14.07l-5.72-5.83,2.33-2.29,7.3,7.43-.5,1.04c-1.86,3.86-1.01,8.41,2.11,11.34,1.77,1.66,4.09,2.58,6.46,2.63l-2.72-2.55-2.03-6.69,5.13-5.47,6.8,1.59,2.72,2.56c-.2-2.37-1.26-4.62-3.04-6.29-3.17-2.97-7.98-3.48-11.7-1.22l-1.11,.67-7.06-7.19,2.33-2.29,5.3,5.39c4.78-2.27,10.57-1.41,14.48,2.26,3.41,3.2,4.84,8.01,3.74,12.57l-.66,2.73-6.6-6.2-4.11-.96-2.54,2.71,1.22,4.04,6.6,6.19-2.68,.83c-1.27,.39-2.57,.59-3.87,.59Z"/></g></g></svg>